<?xml version="1.0" encoding="UTF-8" standalone="no"?>
<!-- Created with Inkscape (http://www.inkscape.org/) -->

<svg
   width="66.113701mm"
   height="74.438301mm"
   viewBox="0 0 66.113701 74.438305"
   version="1.1"
   id="svg8"
   inkscape:version="1.3 (0e150ed6c4, 2023-07-21)"
   sodipodi:docname="cpp.svg"
   xmlns:inkscape="http://www.inkscape.org/namespaces/inkscape"
   xmlns:sodipodi="http://sodipodi.sourceforge.net/DTD/sodipodi-0.dtd"
   xmlns="http://www.w3.org/2000/svg"
   xmlns:svg="http://www.w3.org/2000/svg"
   xmlns:rdf="http://www.w3.org/1999/02/22-rdf-syntax-ns#"
   xmlns:cc="http://creativecommons.org/ns#"
   xmlns:dc="http://purl.org/dc/elements/1.1/">
  <defs
     id="defs2" />
  <sodipodi:namedview
     id="base"
     pagecolor="#ffffff"
     bordercolor="#666666"
     borderopacity="1.0"
     inkscape:pageopacity="0.0"
     inkscape:pageshadow="2"
     inkscape:zoom="0.9899495"
     inkscape:cx="-2.0203051"
     inkscape:cy="127.7843"
     inkscape:document-units="mm"
     inkscape:current-layer="g865"
     showgrid="false"
     inkscape:window-width="1920"
     inkscape:window-height="1009"
     inkscape:window-x="1912"
     inkscape:window-y="-8"
     inkscape:window-maximized="1"
     inkscape:showpageshadow="0"
     inkscape:pagecheckerboard="0"
     inkscape:deskcolor="#505050" />
  <metadata
     id="metadata5">
    <rdf:RDF>
      <cc:Work
         rdf:about="">
        <dc:format>image/svg+xml</dc:format>
        <dc:type
           rdf:resource="http://purl.org/dc/dcmitype/StillImage" />
      </cc:Work>
    </rdf:RDF>
  </metadata>
  <g
     inkscape:label="Layer 1"
     inkscape:groupmode="layer"
     id="layer1"
     transform="translate(147.24492,-98.574402)">
    <g
       id="g865"
       transform="matrix(0.7394351,0,0,0.7394351,-21.459803,50.088451)">
      <path
         d="m -87.093675,93.78693 c -0.572205,-1.042067 -1.412142,-1.91255 -2.433113,-2.5216 L -121.99783,72.508216 c -2.13538,-1.109556 -4.67736,-1.109556 -6.81273,0 l -32.47107,18.757114 c -2.01852,1.296513 -3.28707,3.487655 -3.40636,5.883725 v 37.514255 c 0.0321,1.18542 0.36713,2.34289 0.97325,3.36213 0.57221,1.04206 1.41214,1.91254 2.43311,2.52159 l 32.47107,18.75712 c 2.13537,1.10956 4.67735,1.10956 6.81273,0 l 32.471042,-18.75712 c 1.020969,-0.60905 1.860905,-1.47953 2.433113,-2.52159 0.606121,-1.01924 0.941178,-2.17671 0.973254,-3.36213 V 97.149055 c -0.03207,-1.185417 -0.367134,-2.342879 -0.973254,-3.362125 z m -36.962995,48.8699 c -20.08904,-0.0898 -32.60025,-21.83101 -22.58512,-39.24524 10.01513,-17.414211 35.09891,-17.534094 45.27946,-0.21549 l -4.99895,3.14094 -1.59258,0.88476 -4.42385,2.69856 c -2.90709,-5.39084 -9.12568,-8.09217 -15.04984,-6.5376 -5.92415,1.55457 -10.01511,6.96124 -9.90067,13.0849 -0.0126,2.30222 0.59898,4.56481 1.76954,6.54727 5.16691,8.51808 17.52745,8.51808 22.69435,0 l 11.502,6.72426 c -4.7386,8.02588 -13.37402,12.94116 -22.69434,12.91764 z"
         id="path1"
         style="fill:#ffffff;fill-opacity:1;stroke-width:4.42385"
         sodipodi:nodetypes="cccccccccccccccccsccccsccccc" />
      <text
         xml:space="preserve"
         style="font-size:4.29382px;fill:#ffffff;stroke:#f2fffd;stroke-width:20.2858"
         x="-159.8084"
         y="115.47196"
         id="text1"><tspan
           sodipodi:role="line"
           id="tspan1"
           style="stroke-width:20.2858"
           x="-159.8084"
           y="115.47196"></tspan></text>
    </g>
  </g>
</svg>
