<?xml version="1.0" encoding="UTF-8" standalone="no"?>
<!-- Created with Inkscape (http://www.inkscape.org/) -->

<svg
   width="69.925598mm"
   height="69.925598mm"
   viewBox="0 0 69.925598 69.925602"
   version="1.1"
   id="svg8"
   inkscape:version="1.3 (0e150ed6c4, 2023-07-21)"
   sodipodi:docname="empty_file.svg"
   xml:space="preserve"
   xmlns:inkscape="http://www.inkscape.org/namespaces/inkscape"
   xmlns:sodipodi="http://sodipodi.sourceforge.net/DTD/sodipodi-0.dtd"
   xmlns="http://www.w3.org/2000/svg"
   xmlns:svg="http://www.w3.org/2000/svg"
   xmlns:rdf="http://www.w3.org/1999/02/22-rdf-syntax-ns#"
   xmlns:cc="http://creativecommons.org/ns#"
   xmlns:dc="http://purl.org/dc/elements/1.1/"><defs
     id="defs2" /><sodipodi:namedview
     id="base"
     pagecolor="#ffffff"
     bordercolor="#666666"
     borderopacity="1.0"
     inkscape:pageopacity="0.0"
     inkscape:pageshadow="2"
     inkscape:zoom="1.4"
     inkscape:cx="-20.714286"
     inkscape:cy="172.5"
     inkscape:document-units="mm"
     inkscape:current-layer="g865"
     showgrid="false"
     inkscape:window-width="1920"
     inkscape:window-height="1009"
     inkscape:window-x="1912"
     inkscape:window-y="-8"
     inkscape:window-maximized="1"
     inkscape:showpageshadow="0"
     inkscape:pagecheckerboard="0"
     inkscape:deskcolor="#505050" /><metadata
     id="metadata5"><rdf:RDF><cc:Work
         rdf:about=""><dc:format>image/svg+xml</dc:format><dc:type
           rdf:resource="http://purl.org/dc/dcmitype/StillImage" /><dc:title /></cc:Work></rdf:RDF></metadata><g
     inkscape:label="Layer 1"
     inkscape:groupmode="layer"
     id="layer1"
     transform="translate(170.23151,-102.42565)"><g
       id="g865"
       transform="matrix(0.7394351,0,0,0.7394351,-21.459803,50.088451)"><text
         xml:space="preserve"
         style="font-size:4.29382px;fill:#ffffff;stroke:#f2fffd;stroke-width:20.2858"
         x="-159.8084"
         y="115.47196"
         id="text1" /><rect
         style="fill:#000000;fill-opacity:0;stroke:none;stroke-width:1.35238;stroke-linecap:round;stroke-linejoin:round;stroke-miterlimit:4;stroke-dasharray:none;stroke-opacity:1"
         id="rect4522"
         width="94.566238"
         height="94.566238"
         x="-201.19644"
         y="70.779976" /><path
         id="rect2"
         style="color:#000000;fill:#ffffff;stroke-width:0.928748;stroke-linecap:round;stroke-linejoin:round;-inkscape-stroke:none"
         d="m -173.95234,78.455493 c -5.54964,0 -10.11519,4.775883 -10.11519,10.580396 V 147.089 c 0,5.80451 4.56555,10.58172 10.11519,10.58172 h 40.07804 c 5.54965,0 10.11519,-4.77757 10.11519,-10.58172 V 95.623495 a 3.1566317,3.3016021 0 0 0 -1.07638,-2.482633 l -15.1328,-13.866897 a 3.1566317,3.3016021 0 0 0 -0.0102,-0.0066 c -0.28591,-0.260192 -0.60856,-0.45935 -0.95198,-0.595434 a 3.1566317,3.3016021 0 0 0 -0.0153,-0.006 c -0.34991,-0.136494 -0.72009,-0.20714 -1.09351,-0.208434 a 3.1566317,3.3016021 0 0 0 -0.0102,-0.002 z m 0,6.602873 h 28.77351 l 0.0894,11.659745 c 0.0143,1.810816 1.42035,3.271206 3.15171,3.273888 l 11.86621,0.01992 v 47.07709 c 0,2.26089 -1.64159,3.97884 -3.80288,3.97884 h -40.07804 c -2.16128,0 -3.80287,-1.71831 -3.80287,-3.97884 V 89.035889 c 0,-2.260537 1.64159,-3.977523 3.80287,-3.977523 z" /><g
         id="path2"><path
           style="color:#000000;fill:#ffffff;stroke-linecap:round;stroke-linejoin:round;-inkscape-stroke:none"
           d="m -139.96829,79.273965 0.12779,15.722636 16.28103,0.02676 z"
           id="path5" /></g></g></g></svg>
